name C:\Users\r0593348\3dpredictsim\Results\Batchsim_tmt_linear\Pog_s1_tmt_aCst_d02_k250_ig24.mot
datacolumns 128
datarows 4
range 1.08820574 1.12085191
endheader
time	pelvis_tilt	pelvis_list	pelvis_rotation	pelvis_tx	pelvis_ty	pelvis_tz	hip_flexion_l	hip_adduction_l	hip_rotation_l	hip_flexion_r	hip_adduction_r	hip_rotation_r	knee_angle_l	knee_angle_r	ankle_angle_l	ankle_angle_r	subtalar_angle_l	subtalar_angle_r	tmt_angle_l	tmt_angle_r	mtp_angle_l	mtp_angle_r	lumbar_extension	lumbar_bending	lumbar_rotation	arm_flex_l	arm_add_l	arm_rot_l	arm_flex_r	arm_add_r	arm_rot_r	elbow_flex_l	elbow_flex_r	pro_sup_l	pro_sup_r	glut_med1_l/activation	glut_med2_l/activation	glut_med3_l/activation	glut_min1_l/activation	glut_min2_l/activation	glut_min3_l/activation	semimem_l/activation	semiten_l/activation	bifemlh_l/activation	bifemsh_l/activation	sar_l/activation	add_long_l/activation	add_brev_l/activation	add_mag1_l/activation	add_mag2_l/activation	add_mag3_l/activation	tfl_l/activation	pect_l/activation	grac_l/activation	glut_max1_l/activation	glut_max2_l/activation	glut_max3_l/activation	iliacus_l/activation	psoas_l/activation	quad_fem_l/activation	gem_l/activation	peri_l/activation	rect_fem_l/activation	vas_med_l/activation	vas_int_l/activation	vas_lat_l/activation	med_gas_l/activation	lat_gas_l/activation	soleus_l/activation	tib_post_l/activation	flex_dig_l/activation	flex_hal_l/activation	tib_ant_l/activation	per_brev_l/activation	per_long_l/activation	per_tert_l/activation	ext_dig_l/activation	ext_hal_l/activation	ercspn_l/activation	intobl_l/activation	extobl_l/activation	glut_med1_r/activation	glut_med2_r/activation	glut_med3_r/activation	glut_min1_r/activation	glut_min2_r/activation	glut_min3_r/activation	semimem_r/activation	semiten_r/activation	bifemlh_r/activation	bifemsh_r/activation	sar_r/activation	add_long_r/activation	add_brev_r/activation	add_mag1_r/activation	add_mag2_r/activation	add_mag3_r/activation	tfl_r/activation	pect_r/activation	grac_r/activation	glut_max1_r/activation	glut_max2_r/activation	glut_max3_r/activation	iliacus_r/activation	psoas_r/activation	quad_fem_r/activation	gem_r/activation	peri_r/activation	rect_fem_r/activation	vas_med_r/activation	vas_int_r/activation	vas_lat_r/activation	med_gas_r/activation	lat_gas_r/activation	soleus_r/activation	tib_post_r/activation	flex_dig_r/activation	flex_hal_r/activation	tib_ant_r/activation	per_brev_r/activation	per_long_r/activation	per_tert_r/activation	ext_dig_r/activation	ext_hal_r/activation	ercspn_r/activation	intobl_r/activation	extobl_r/activation	
          1.08820574	         -2.92851769	         -2.09050216	          5.84748303	          1.36025717	          0.85753439	         -0.00295323	        -18.08536460	         -1.58421835	          7.48297894	         31.76161494	          2.87781930	         -2.86880148	         -7.58593655	        -14.88702738	         -0.12030604	          6.93041229	         10.78354826	         -2.12051396	          3.85127280	          0.14586709	         19.55105636	         -0.08795173	         -1.96027549	          0.58805514	         -1.90919559	          8.35363986	        -13.45931406	         19.19007796	         -7.58541057	        -13.48716487	         13.01971090	         33.90486079	         11.59270515	         86.51662706	         86.51662706	          0.27239237	          0.10333793	          0.06978155	          0.31179381	          0.21699362	          0.11153373	          0.05000075	          0.05000005	          0.05000003	          0.06728060	          0.10852458	          0.09584288	          0.11750711	          0.05000034	          0.05000059	          0.05000030	          0.33070545	          0.09125227	          0.05000015	          0.05000019	          0.05000014	          0.05000017	          0.37385977	          0.57339158	          0.05000001	          0.05000006	          0.05000012	          0.21208585	          0.05108331	          0.08277958	          0.07835240	          0.29432851	          0.39563909	          0.28569538	          0.25538627	          0.27459676	          0.34505132	          0.05000000	          0.05906841	          0.14361676	          0.05000003	          0.05000000	          0.05000002	          0.05000000	          0.05000001	          0.06506921	          0.05906837	          0.05906838	          0.05000002	          0.05906840	          0.05906839	          0.05906836	          0.10738716	          0.05906839	          0.21440797	          0.05000022	          0.05000002	          0.16057075	          0.32274899	          0.10410345	          0.19155294	          0.10163377	          0.05000005	          0.05001059	          0.14268852	          0.05000008	          0.05000004	          0.06082959	          0.07031268	          0.05512975	          0.45760728	          0.30650618	          0.13932319	          0.05000012	          0.12037671	          0.12733411	          0.11026022	          0.06450410	          0.07234357	          0.06274433	          0.05000000	          0.05000010	          0.05000016	          0.52015124	          0.32350702	          0.19110209	          0.27827767	          0.53986707	          0.29272961	          0.06219337	          0.09599863	          0.09659845	
          1.09908780	         -2.92170292	         -2.20102564	          6.12256811	          1.37670362	          0.85647761	         -0.00273983	        -17.83111541	         -1.89639401	          7.25815009	         31.17111561	          3.30308894	         -2.62885842	         -9.74835441	        -15.32590765	         -0.96459645	          6.23613164	         11.78228992	         -2.58516352	          3.73205333	          0.05770445	         20.74774681	         -0.08370429	         -1.76130314	          0.82474728	         -1.98224398	          8.11122182	        -13.47245161	         19.24499629	         -8.64863023	        -13.48090900	         12.92745059	         35.09613264	         11.50797948	         86.51662706	         86.51662706	          0.23057377	          0.08747314	          0.05906852	          0.26392616	          0.18368002	          0.09441070	          0.05000071	          0.05000027	          0.05906816	          0.05695145	          0.09186354	          0.20492683	          0.16923912	          0.17331027	          0.05906897	          0.05906869	          0.27993444	          0.07724629	          0.05906835	          0.05906816	          0.05906855	          0.05906864	          0.31646354	          0.53234034	          0.06032340	          0.05906959	          0.05906838	          0.17952571	          0.16056889	          0.16057004	          0.13209135	          0.24914218	          0.33489922	          0.24183444	          0.21617851	          0.23243978	          0.29207789	          0.05000000	          0.05000004	          0.12156826	          0.05000001	          0.05000000	          0.05000002	          0.06671989	          0.06978147	          0.05906838	          0.05000000	          0.05000000	          0.10614303	          0.05000002	          0.05000001	          0.05000001	          0.09090073	          0.05000003	          0.18149133	          0.05000001	          0.06978167	          0.13591941	          0.29718844	          0.37313984	          0.23135503	          0.10204933	          0.05000008	          0.08243600	          0.15125427	          0.05000145	          0.08046898	          0.12452830	          0.05951806	          0.06978146	          0.65897689	          0.25945031	          0.11793382	          0.06978133	          0.17833687	          0.19298279	          0.16216126	          0.06339787	          0.06978141	          0.05311161	          0.05906837	          0.06978888	          0.06978151	          0.51240022	          0.39113727	          0.24015929	          0.23555560	          0.52180350	          0.24778877	          0.05264523	          0.08126059	          0.08176833	
          1.10996985	         -2.91032956	         -2.31405694	          6.36803039	          1.39342516	          0.85537223	         -0.00254539	        -17.49836002	         -2.19745849	          7.01261143	         30.37135584	          3.62884214	         -2.35244840	        -12.04329475	        -15.80868037	         -1.96251348	          5.74356552	         12.70856978	         -3.06709527	          3.53498524	         -0.12527943	         21.83792664	         -0.17979884	         -1.54083738	          1.06795274	         -2.04508698	          7.77486188	        -13.48593300	         19.21171707	         -9.72106034	        -13.48307988	         12.88042211	         36.27937652	         11.46189502	         86.51662706	         86.51662706	          0.34415290	          0.07404397	          0.05000013	          0.40977285	          0.15548087	          0.07991645	          0.05356899	          0.05000003	          0.05000002	          0.05000681	          0.08244081	          0.17346577	          0.14325696	          0.14670309	          0.05000053	          0.05000028	          0.30396563	          0.06977424	          0.05000026	          0.05000036	          0.05000026	          0.05000026	          0.26787902	          0.49713367	          0.05106235	          0.05000106	          0.05000006	          0.15196431	          0.13591781	          0.13591878	          0.11181224	          0.21089302	          0.28348434	          0.20470719	          0.18299005	          0.19675485	          0.24723711	          0.05000001	          0.10194535	          0.16876597	          0.05000003	          0.05000020	          0.05000005	          0.07022367	          0.05906838	          0.05000001	          0.27080246	          0.28208534	          0.34917055	          0.43938629	          0.26362842	          0.23298749	          0.09696180	          0.08500404	          0.15362827	          0.08343880	          0.05906861	          0.11505260	          0.25156306	          0.31585414	          0.19583665	          0.11580089	          0.05000006	          0.06978033	          0.12803347	          0.14984657	          0.06811521	          0.10541033	          0.05906818	          0.05906838	          0.55780850	          0.21961863	          0.23960142	          0.05906826	          0.15095799	          0.16335542	          0.13726572	          0.05366482	          0.05906834	          0.05446427	          0.05000001	          0.05907467	          0.05906844	          0.57618271	          0.41996703	          0.20328938	          0.49839986	          0.59789084	          0.28097184	          0.06667720	          0.11268066	          0.06921497	
          1.12085191	         -2.89627243	         -2.41630018	          6.57440472	          1.41021378	          0.85424617	         -0.00232259	        -17.06892863	         -2.47841138	          6.77110042	         29.47339504	          3.92557853	         -2.07830586	        -14.47525861	        -16.19960168	         -3.05703829	          5.38735414	         13.58418173	         -3.56417008	          3.21783423	         -0.04647652	         22.69769539	         -0.18825878	         -1.32112970	          1.30335099	         -2.09730844	          7.38084285	        -13.50934912	         19.12065167	        -10.75118292	        -13.48607070	         12.88556595	         37.43092868	         11.42203855	         86.51662706	         86.51662706	          0.29131738	          0.06267649	          0.05000001	          0.34686313	          0.13161093	          0.06764742	          0.07301777	          0.05000001	          0.05000002	          0.05000000	          0.06978424	          0.19566704	          0.21968382	          0.12418107	          0.05002664	          0.12944133	          0.25729984	          0.05906346	          0.05000007	          0.05000054	          0.05000039	          0.05000035	          0.22675331	          0.43238675	          0.05000002	          0.05000011	          0.05000003	          0.12863423	          0.11505224	          0.11505225	          0.11505224	          0.17851600	          0.23996285	          0.17327984	          0.15489679	          0.16654840	          0.20928044	          0.13909765	          0.15786825	          0.15687277	          0.05785056	          0.19297432	          0.12297147	          0.09714206	          0.05000000	          0.05000000	          0.38386682	          0.39341613	          0.40840735	          0.37193030	          0.22624255	          0.27025926	          0.08498405	          0.10902607	          0.13004274	          0.07062901	          0.05000024	          0.09738934	          0.21294225	          0.26736318	          0.20468597	          0.15676324	          0.05000006	          0.05906756	          0.11084877	          0.24230965	          0.17409397	          0.14793804	          0.05000001	          0.05000003	          0.47217183	          0.18590204	          0.20281711	          0.05000000	          0.17826805	          0.21955243	          0.16985182	          0.05000000	          0.05000000	          0.05000000	          0.05000000	          0.05000535	          0.05000009	          0.64574016	          0.35549234	          0.17593475	          0.68918445	          0.62490540	          0.38840743	          0.08432274	          0.09538154	          0.05858886	
